<svg width="19" height="17" viewBox="0 0 19 17" fill="none" xmlns="http://www.w3.org/2000/svg">
<circle cx="13" cy="6" r="4" transform="rotate(53 13 6)" fill="#FFE201"/>
<path d="M10.282 5.57002L8.7312 7.12082C7.61593 8.23576 5.80808 8.23576 4.69282 7.12082L4.57001 6.99802L8.08931 3.47871C10.0611 1.50742 13.2575 1.50742 15.2293 3.47871V3.47871C16.8653 5.11485 17.1804 7.65338 15.994 9.63982" stroke="#343434" stroke-width="1.4" stroke-linecap="round" stroke-linejoin="round"/>
<path d="M11.1859 7.90192L13.7656 10.4816C14.6018 11.3181 14.6018 12.6739 13.7656 13.5104L12.5975 14.6785C11.7941 15.4821 10.7043 15.9335 9.56802 15.9335C8.4317 15.9335 7.34194 15.4821 6.53852 14.6785L2.47871 10.6187C0.507422 8.64689 0.507422 5.4505 2.47871 3.47869V3.47869C3.41208 2.54272 4.67624 2.01156 5.99802 2" stroke="#343434" stroke-width="1.4" stroke-linecap="round" stroke-linejoin="round"/>
<path d="M13.4172 13.8588L10.639 11.0814" stroke="#343434" stroke-width="1.4" stroke-linecap="round" stroke-linejoin="round"/>
<path d="M11.3623 15.541L8.77045 12.9492" stroke="#343434" stroke-width="1.4" stroke-linecap="round" stroke-linejoin="round"/>
</svg>
